<?xml version="1.0" encoding="utf-8"?>
<!-- Generator: Adobe Illustrator 23.0.0, SVG Export Plug-In . SVG Version: 6.00 Build 0)  -->
<svg version="1.1" id="e7dedc5b-fca6-4313-b5a0-e6297481e8ae"
	 xmlns="http://www.w3.org/2000/svg" xmlns:xlink="http://www.w3.org/1999/xlink" x="0px" y="0px" viewBox="0 0 1022.7 785.8"
	 style="enable-background:new 0 0 1022.7 785.8;" xml:space="preserve">
<style type="text/css">
	.st0{opacity:0.1;fill:#8B50FF;enable-background:new    ;}
	.st1{opacity:0.1;}
	.st2{fill:#3F3D56;}
	.st3{fill:#8B50FF;}
	.st4{opacity:0.1;enable-background:new    ;}
	.st5{fill:#D0D2D5;}
	.st6{fill:#FFFFFF;}
	.st7{opacity:0.1;fill:#444053;enable-background:new    ;}
	.st8{opacity:0.3;fill:#8B50FF;enable-background:new    ;}
	.st9{opacity:0.8;fill:#FA5959;enable-background:new    ;}
	.st10{opacity:0.8;fill:#FED253;enable-background:new    ;}
	.st11{opacity:0.8;fill:#8CCF4D;enable-background:new    ;}
	.st12{fill:url(#SVGID_1_);}
	.st13{fill:#2F2E41;}
	.st14{fill:#454B69;}
	.st15{fill:#FBBEBE;}
</style>
<ellipse class="st0" cx="468.6" cy="660.9" rx="425" ry="33"/>
<g class="st1">
	<path class="st2" d="M912,433.7c-5.8-5.7-16.6-4.2-24.1,3.4c-1.1,1.1-2.1,2.3-2.9,3.6c-0.7,0.1-1.3,0.3-2,0.5
		c-0.5-2.2-1.4-4.4-2.5-6.3c4.2-7.5,4.2-16.6,0-24.1c4.2-7.5,4.1-16.6-0.1-24.1c2.1-3.7,3.2-7.8,3.1-12c0-10.9-6.8-19.7-15.1-19.6
		c-8.3,0-15,8.9-15,19.7c0,4.2,1.1,8.4,3.2,12c-4.2,7.5-4.1,16.6,0.1,24.1c-4.2,7.5-4.1,16.6,0.1,24.1c-4.2,7.5-4.2,16.6,0.1,24.1
		c-2.1,3.7-3.2,7.8-3.1,12c0,2,0.3,4.1,0.8,6.1c-1.9-1-4-1.8-6.1-2.2c-0.9-1.3-1.9-2.5-2.9-3.6c-7.6-7.5-18.4-9-24.1-3.2
		c-5.7,5.8-4.2,16.5,3.4,24.1c3.2,3.3,7.3,5.5,11.8,6.4c0.9,1.3,1.9,2.5,2.9,3.6c4.4,4.4,9.9,6.7,14.8,6.7c0.2,1.3,0.6,2.6,1,3.9
		c-1.9,5.4-1.9,11.3,0.1,16.7c-1.9,5.4-1.9,11.3,0.1,16.7c-0.9,2.7-1.4,5.5-1.4,8.3c0,10.9,6.8,19.7,15.1,19.6c8.3,0,15-8.9,15-19.7
		c0-2.8-0.5-5.7-1.5-8.3c1.9-5.4,1.9-11.3-0.1-16.7c1.9-5.4,1.9-11.3-0.1-16.7c1.8-5.4,1.8-11.3-0.1-16.7c1.9-5.4,1.9-11.3-0.1-16.7
		c0.6-1.7,1-3.4,1.2-5.1c4-1.1,7.7-3.3,10.6-6.3c1.1-1.1,2.1-2.3,2.9-3.6c4.5-1,8.6-3.2,11.7-6.5C916.3,450.2,917.7,439.4,912,433.7
		z"/>
	<g class="st1">
		<path d="M882.2,414.8c-0.5,1.4-1.1,2.7-1.8,4c1.4,2.5,2.4,5.2,2.8,8c0.2-1.3,0.3-2.7,0.3-4C883.5,420.1,883.1,417.4,882.2,414.8z"
			/>
		<path d="M882.1,390.7c-0.5,1.4-1.1,2.7-1.8,4c1.4,2.5,2.4,5.2,2.8,8c0.2-1.3,0.3-2.7,0.3-4C883.4,396,883,393.3,882.1,390.7z"/>
		<path d="M856.5,394.8c-0.8-1.3-1.4-2.6-1.9-4c-0.9,2.6-1.3,5.3-1.3,8c0,1.3,0.1,2.7,0.3,4C854.2,400,855.1,397.3,856.5,394.8z"/>
		<path d="M854.2,541.9c0.2-1.5,0.6-2.9,1.1-4.4c-0.5-1.3-0.8-2.6-1-4c-0.2,1.4-0.4,2.9-0.4,4.3C853.9,539.2,854,540.5,854.2,541.9z
			"/>
		<path d="M854.1,525.2c0.2-1.5,0.6-2.9,1.1-4.4c-0.5-1.3-0.8-2.5-1-3.9l0,0c-0.2,1.4-0.3,2.8-0.3,4.2
			C853.9,522.5,853.9,523.8,854.1,525.2z"/>
		<path d="M882.3,438.8c-0.5,1.4-1.1,2.7-1.8,4c1.2,2,2,4.1,2.5,6.3c0.7-0.2,1.3-0.4,2-0.5c0.9-1.3,1.8-2.5,2.9-3.6
			c7.5-7.6,18.3-9.1,24.1-3.4c1.4,1.4,2.5,3.2,3,5.2c1.2-5,0.2-9.9-3-13.2c-5.8-5.7-16.6-4.2-24.1,3.4c-1.1,1.1-2.1,2.3-2.9,3.6
			c-0.7,0.1-1.3,0.3-2,0.5C882.8,440.4,882.5,439.6,882.3,438.8z"/>
		<path d="M854.3,550.2c-0.2,1.4-0.4,2.9-0.4,4.3c0,1.4,0.1,2.7,0.3,4c0.2-1.5,0.6-3,1.1-4.4C854.9,552.9,854.5,551.6,854.3,550.2z"
			/>
		<path d="M856.6,418.9c-0.8-1.3-1.4-2.6-1.9-4c-0.9,2.6-1.3,5.3-1.3,8c0,1.3,0.1,2.7,0.3,4C854.2,424.1,855.2,421.4,856.6,418.9z"
			/>
		<path d="M882.4,504c0.5,1.4,0.9,2.9,1.1,4.4c0.2-1.3,0.3-2.7,0.3-4c0-1.4-0.1-2.9-0.4-4.3C883.2,501.4,882.9,502.7,882.4,504z"/>
		<path d="M882.5,537.4c0.5,1.4,0.9,2.9,1.1,4.4c0.2-1.3,0.3-2.7,0.3-4c0-1.4-0.1-2.9-0.4-4.3C883.3,534.8,883,536.1,882.5,537.4z"
			/>
		<path d="M882.5,520.7c0.5,1.4,0.9,2.9,1.1,4.4c0.2-1.3,0.3-2.6,0.4-4c0-1.4-0.1-2.9-0.4-4.3C883.3,518.1,882.9,519.4,882.5,520.7z
			"/>
		<path d="M882.3,487.3c0.5,1.4,0.9,2.9,1.1,4.3c0.2-1.3,0.3-2.7,0.3-4c0-1.5-0.1-2.9-0.4-4.4C883.1,484.6,882.8,486,882.3,487.3z"
			/>
		<path d="M821.2,476.1c5.7-5.8,16.5-4.3,24.1,3.2c1.1,1.1,2.1,2.3,2.9,3.6c2.1,0.4,4.2,1.2,6.1,2.2c-0.5-2-0.8-4-0.8-6.1
			c0-0.8,0-1.5,0.1-2.3c-1.7-0.9-3.6-1.5-5.5-1.9c-0.9-1.3-1.9-2.5-2.9-3.6c-7.6-7.5-18.4-9-24.1-3.2c-3.3,3.3-4.2,8.2-2.9,13.2
			C818.8,479.3,819.8,477.6,821.2,476.1z"/>
		<path d="M856.7,467c-0.7-1.3-1.4-2.6-1.8-4c-0.9,2.6-1.3,5.3-1.3,8c0,1.3,0.1,2.7,0.3,4C854.4,472.2,855.3,469.5,856.7,467z"/>
		<path d="M856.7,442.9c-0.7-1.3-1.4-2.6-1.8-4c-0.9,2.6-1.3,5.3-1.3,8c0,1.3,0.1,2.7,0.3,4C854.3,448.1,855.2,445.4,856.7,442.9z"
			/>
		<path d="M882.6,554.1c0.5,1.4,0.9,2.9,1.1,4.4c0.4-2.8,0.4-5.6-0.1-8.4C883.4,551.5,883,552.8,882.6,554.1z"/>
	</g>
	<path class="st2" d="M880.1,338.6c2.1-3.7,3.2-7.8,3.1-12c0-10.9-6.8-19.7-15.1-19.6c-8.3,0-15,8.9-15,19.8c0,4.2,1.1,8.4,3.2,12
		c-4.2,7.5-4.1,16.6,0.1,24.1c-2.1,3.7-3.2,7.8-3.1,12c0,1.3,0.1,2.7,0.3,4c0.6-4.6,2.7-8.8,6-12c4.8,4.8,12.5,4.8,17.3,0
		c0,0,0.1-0.1,0.1-0.1c3.3,3.2,5.4,7.4,6.1,11.9c0.2-1.3,0.3-2.6,0.3-4c0-4.2-1.1-8.4-3.2-12C884.4,355.1,884.3,346,880.1,338.6
		L880.1,338.6z"/>
	<path class="st3" d="M923.8,161.7c2-2.6,3.9-5.4,5.6-8.3l-39.5-6.3l42.7,0.2c8.2-18.1,8.7-38.7,1.2-57.1l-57.2,29.9l52.7-39.1
		c-20.4-34.1-64.7-45.2-98.8-24.7s-45.2,64.7-24.7,98.8c1.5,2.4,3.1,4.8,4.8,7c-3.2,4.1-5.9,8.5-8.2,13.2l51.4,26.5l-54.8-18.2
		c-7.7,23.1-3.3,48.5,11.9,67.6c-24.5,31.4-18.9,76.6,12.5,101.1c31.4,24.5,76.6,18.9,101.1-12.5c20.4-26.2,20.3-62.9-0.3-89
		C944.6,224.6,944.5,187.8,923.8,161.7L923.8,161.7z"/>
	<path class="st4" d="M795.4,206.7c0,16.2,5.5,31.8,15.6,44.5c-24.5,31.4-18.9,76.6,12.5,101.1c31.4,24.5,76.6,18.9,101.1-12.5
		c20.4-26.2,20.3-62.9-0.3-89C933.8,238.5,795.3,198.7,795.4,206.7z"/>
	<circle class="st3" cx="815.4" cy="67.5" r="10.7"/>
	<circle class="st3" cx="874.1" cy="45.2" r="10.7"/>
	<circle class="st3" cx="939.3" cy="119.8" r="10.7"/>
	
		<ellipse transform="matrix(0.8907 -0.4545 0.4545 0.8907 21.2513 443.0284)" class="st3" cx="932.1" cy="177.3" rx="10.7" ry="10.7"/>
	<circle class="st3" cx="937.8" cy="286.2" r="10.7"/>
	<circle class="st4" cx="937.8" cy="286.2" r="10.7"/>
	<circle class="st3" cx="798.6" cy="230.6" r="10.7"/>
	<circle class="st4" cx="798.6" cy="230.6" r="10.7"/>
	<path class="st4" d="M868.4,392.4c-8,0-14.5-8-15.1-18.3c0,0.4,0,0.9,0,1.3c0,10.9,6.8,19.7,15.1,19.6c8.3,0,15-8.9,15-19.7
		c0-0.5,0-0.9,0-1.3C882.8,384.3,876.3,392.4,868.4,392.4z"/>
	<path class="st4" d="M868.5,415.8c-8,0-14.5-8-15.1-18.3c0,0.4,0,0.9,0,1.3c0,10.9,6.8,19.7,15.1,19.6c8.3,0,15-8.9,15-19.7
		c0-0.4,0-0.9,0-1.3C882.9,407.6,876.4,415.8,868.5,415.8z"/>
	<path class="st4" d="M868.5,439.2c-8,0-14.5-8-15.1-18.3c0,0.4,0,0.9,0,1.3c0,10.9,6.8,19.7,15.1,19.6c8.3,0,15-8.9,15-19.7
		c0-0.4,0-0.9,0-1.3C883,431,876.5,439.2,868.5,439.2z"/>
	<path class="st4" d="M868.7,462.6c-8,0-14.5-8-15.1-18.3c0,0.4,0,0.9,0,1.3c0,10.9,6.8,19.7,15.1,19.6c8.3,0,15-8.9,15-19.7
		c0-0.5,0-0.9,0-1.3C883.1,454.4,876.6,462.5,868.7,462.6z"/>
	<path class="st4" d="M868.7,486c-8,0-14.5-8-15.1-18.3c0,0.4,0,0.9,0,1.3c0,10.9,6.8,19.7,15.1,19.6c8.3,0,15-8.9,15-19.7
		c0-0.4,0-0.9,0-1.3C883.2,477.8,876.7,485.9,868.7,486z"/>
	<path class="st4" d="M868.8,509.4c-8,0-14.5-8-15.1-18.3c0,0.4,0,0.9,0,1.3c0,10.9,6.8,19.7,15.1,19.6s15-8.9,15-19.8
		c0-0.4,0-0.9,0-1.3C883.2,501.2,876.8,509.3,868.8,509.4z"/>
	<path class="st4" d="M868.9,532.8c-8,0-14.5-8-15.1-18.3c0,0.4,0,0.9,0,1.3c0,10.9,6.8,19.7,15.1,19.6c8.3,0,15-8.9,15-19.7
		c0-0.5,0-0.9,0-1.3C883.3,524.6,876.9,532.7,868.9,532.8z"/>
	<path class="st4" d="M869,556.1c-8,0-14.5-8-15.1-18.3c0,0.4,0,0.9,0,1.3c0,10.9,6.8,19.7,15.1,19.6c8.3,0,15-8.9,15-19.8
		c0-0.4,0-0.9-0.1-1.3C883.4,548,876.9,556.1,869,556.1z"/>
	<path class="st4" d="M869,571.5c-8,0-14.5-8-15.1-18.3c0,0.4,0,0.9,0,1.3c0,10.9,6.8,19.7,15.1,19.6c8.3,0,15-8.9,15-19.7
		c0-0.4,0-0.9,0-1.3C883.5,563.4,877,571.5,869,571.5z"/>
	<path class="st3" d="M996.7,402c-0.5-3.3-1.4-6.6-2.7-9.6c2.6-1.3,3.7-4.6,2.3-7.2c-1.3-2.6-4.6-3.7-7.2-2.3
		c-0.2,0.1-0.5,0.3-0.7,0.4c-7.1-8.7-17.8-13.7-29-13.6c0-3-2.4-5.3-5.4-5.3c-3,0-5.3,2.4-5.3,5.4c0,0.5,0.1,1,0.2,1.5
		c-11.6,3.4-20.8,12.3-24.8,23.7c-3.1,1-6.1,2.4-8.9,4.2l5.1,19.5l-8.9-16.8c-16,13.1-18.3,36.7-5.2,52.7
		c13.1,16,36.7,18.3,52.7,5.2c1.1-0.9,2.1-1.8,3-2.8c0.9,0.6,1.9,0.9,3,0.9c2.9,0,5.3-2.4,5.3-5.3c0-1.6-0.7-3.1-1.9-4.1
		c1-1.8,1.8-3.7,2.5-5.7c15.4-5,25.9-19.3,26-35.5l-19.5,6.1L996.7,402z"/>
	<g class="st1">
		<path d="M973.4,424.7c-11.1-5.4-20.4-13.7-30.2-21.2c-4-3.1-8.1-6-12.4-8.7l-5.6-2.3c-0.3,0.8-0.7,1.6-1,2.5
			c-3.1,1-6.1,2.4-8.9,4.2l5.1,19.5l-8.9-16.8c-16,13.1-18.3,36.7-5.2,52.7c13.1,16,36.7,18.3,52.7,5.2c1.1-0.9,2.1-1.8,3-2.8
			c0.9,0.6,1.9,0.9,3,0.9c2.9,0,5.3-2.4,5.3-5.3c0-1.6-0.7-3.1-1.9-4.1c1-1.8,1.8-3.7,2.5-5.7c7.4-2.4,13.8-7,18.5-13.2
			C983.9,428.8,978.4,427.2,973.4,424.7z"/>
	</g>
	<path class="st3" d="M836.8,447c0-2.9-2.4-5.3-5.4-5.3c-0.8,0-1.7,0.2-2.4,0.6c-5-6.5-12-11.1-19.9-13.2c-0.9-3.8-2.3-7.5-4.3-10.9
		l-19,5.9l16.4-9.7c-1.1-1.4-2.3-2.8-3.7-4.1c0.4-0.8,0.7-1.7,0.7-2.6c0-3-2.4-5.3-5.4-5.3c-1.5,0-2.9,0.6-3.9,1.7
		c-18.3-9.6-40.9-2.5-50.5,15.8c-7.2,13.7-5.2,30.5,5.1,42.1c-0.8,1-1.2,2.2-1.2,3.4c0,2.9,2.4,5.3,5.4,5.3c1.5,0,3-0.7,4-1.8
		c3.2,2,6.6,3.5,10.2,4.5c1.8,8,6.1,15.1,12.3,20.4l20.4-18.1l-15.3,21.7c17.8,10.6,40.7,4.8,51.3-13c5.9-9.9,6.9-22,2.7-32.8
		C835.9,450.6,836.8,448.9,836.8,447z"/>
	<path class="st4" d="M836.8,447c0-2.9-2.4-5.3-5.4-5.3c-0.8,0-1.7,0.2-2.4,0.6c-5-6.5-12-11.1-19.9-13.2c-0.1-0.6-0.3-1.2-0.5-1.9
		c-0.4,0.8-0.7,1.6-0.9,2.4c-1.4,5.1-0.6,10.6-2,15.7c-1.6,6-6,11-11.2,14.4c-5.2,3.4-11.2,5.4-17.2,7.1c-5,1.4-10.1,2.7-14.4,5.5
		c-0.4,0.2-0.8,0.6-1.2,0.8c0.4,0.1,0.8,0.2,1.2,0.4c1.8,8,6.1,15.1,12.3,20.4l20.4-18.1l-15.3,21.7c17.8,10.6,40.7,4.8,51.3-13
		c5.9-9.9,6.9-22,2.7-32.8C835.9,450.6,836.8,448.9,836.8,447z"/>
</g>
<g class="st1">
	<path class="st2" d="M54.8,506c2.8-3,8.3-2.4,12.2,1.3c0.6,0.5,1.1,1.1,1.5,1.7c0.3,0.1,0.7,0.1,1,0.2c0.2-1.1,0.6-2.2,1.2-3.2
		c-2.2-3.7-2.3-8.3-0.3-12.1c-1.1-1.8-1.7-3.9-1.8-6c-0.1-2.1,0.4-4.2,1.4-6.1c-1.1-1.8-1.7-3.9-1.7-6c-0.1-5.5,3.1-10,7.3-10.1
		c4.2-0.1,7.7,4.2,7.9,9.7c0.1,2.1-0.4,4.2-1.4,6.1c2.2,3.7,2.4,8.3,0.3,12.1c2.2,3.7,2.3,8.3,0.3,12.1c2.2,3.7,2.4,8.3,0.3,12.1
		c1.1,1.8,1.7,3.9,1.8,6c0,1-0.1,2.1-0.3,3c0.9-0.6,2-1,3-1.2c0.4-0.7,0.9-1.3,1.4-1.8c3.7-3.9,9.1-4.8,12.1-2
		c3,2.8,2.4,8.3-1.3,12.2c-1.6,1.7-3.6,2.9-5.8,3.4c-0.4,0.7-0.9,1.3-1.4,1.8c-1.9,2.1-4.5,3.4-7.4,3.6c-0.1,0.7-0.3,1.3-0.5,2
		c0.5,1.3,0.8,2.8,0.8,4.2c0,1.4-0.2,2.9-0.6,4.2c0.5,1.3,0.8,2.8,0.8,4.2c0,1.4-0.2,2.9-0.6,4.2c0.5,1.3,0.8,2.8,0.8,4.2
		c0.2,5.5-3.1,10-7.3,10.1s-7.7-4.2-7.9-9.7c0-1.4,0.2-2.9,0.6-4.2c-1-2.7-1.1-5.7-0.2-8.4c-1-2.7-1.1-5.7-0.2-8.4
		c-0.5-1.3-0.8-2.8-0.8-4.2c0-1.4,0.2-2.9,0.6-4.2c-0.5-1.3-0.8-2.8-0.8-4.2c0-1.4,0.2-2.9,0.6-4.2c-0.3-0.8-0.6-1.7-0.7-2.5
		c-2-0.5-3.9-1.5-5.4-3c-0.6-0.5-1.1-1.1-1.5-1.8c-2.3-0.4-4.4-1.5-6-3.1C52.9,514.4,52,509,54.8,506z"/>
	<g class="st1">
		<path d="M69.5,496c0.3,0.7,0.6,1.4,1,2c-0.7,1.3-1.1,2.6-1.3,4.1c-0.1-0.7-0.2-1.3-0.2-2C68.9,498.7,69.1,497.3,69.5,496z"/>
		<path d="M69.2,483.9c0.3,0.7,0.6,1.4,1,2c-0.7,1.3-1.1,2.7-1.3,4.1C68.5,487.9,68.6,485.9,69.2,483.9z"/>
		<path d="M82.1,485.5c0.4-0.7,0.7-1.3,0.9-2c0.5,1.3,0.7,2.6,0.8,4c0,0.7,0,1.4-0.1,2C83.4,488.1,82.9,486.8,82.1,485.5z"/>
		<path d="M85.7,559.5c-0.1-0.7-0.3-1.5-0.6-2.2c0.2-0.7,0.4-1.3,0.5-2c0.1,0.7,0.2,1.4,0.2,2.2C85.8,558.2,85.7,558.9,85.7,559.5z"
			/>
		<path d="M85.4,551.1c-0.1-0.7-0.3-1.5-0.6-2.2c0.2-0.6,0.4-1.3,0.5-2l0,0C85.5,548.3,85.6,549.7,85.4,551.1L85.4,551.1z"/>
		<path d="M69.9,508.1c0.3,0.7,0.6,1.4,1,2c-0.6,1-1,2.1-1.2,3.2c-0.3-0.1-0.7-0.2-1-0.2c-0.5-0.6-1-1.2-1.5-1.7
			c-3.9-3.7-9.4-4.3-12.2-1.3c-0.7,0.7-1.2,1.7-1.4,2.6c-0.8-2.3-0.3-4.8,1.3-6.7c2.8-3,8.3-2.4,12.2,1.3c0.6,0.5,1.1,1.1,1.5,1.7
			c0.3,0.1,0.7,0.1,1,0.2C69.6,508.9,69.7,508.5,69.9,508.1z"/>
		<path d="M85.8,563.7c0.1,0.7,0.2,1.4,0.2,2.2c0,0.7,0,1.4-0.1,2c-0.1-0.7-0.3-1.5-0.6-2.2C85.5,565.1,85.7,564.4,85.8,563.7z"/>
		<path d="M82.5,497.7c0.4-0.6,0.7-1.3,0.9-2c0.5,1.3,0.7,2.6,0.8,4c0,0.7,0,1.3-0.1,2C83.7,500.2,83.2,498.9,82.5,497.7z"/>
		<path d="M70.9,540.9c-0.2,0.7-0.4,1.5-0.5,2.2c-0.3-1.4-0.3-2.8-0.1-4.2C70.4,539.6,70.6,540.3,70.9,540.9z"/>
		<path d="M71.3,557.7c-0.2,0.7-0.4,1.5-0.5,2.2c-0.1-0.7-0.2-1.3-0.2-2c0-0.7,0-1.4,0.1-2.2C70.9,556.4,71.1,557.1,71.3,557.7z"/>
		<path d="M71.1,549.3c-0.2,0.7-0.4,1.5-0.5,2.2c-0.1-0.7-0.2-1.3-0.2-2c0-0.7,0-1.4,0.1-2.2C70.6,548,70.8,548.7,71.1,549.3z"/>
		<path d="M70.6,532.5c-0.2,0.7-0.4,1.5-0.5,2.2c-0.1-0.7-0.2-1.3-0.2-2c0-0.7,0-1.4,0.1-2.2C70.2,531.2,70.4,531.9,70.6,532.5z"/>
		<path d="M101.2,525.9c-3-2.8-8.4-1.9-12.1,2c-0.5,0.6-1,1.2-1.4,1.8c-1.1,0.2-2.1,0.6-3,1.2c0.2-1,0.3-2,0.3-3.1
			c0-0.4,0-0.8-0.1-1.1c0.8-0.5,1.8-0.8,2.7-1c0.4-0.7,0.9-1.3,1.4-1.8c3.7-3.9,9.1-4.8,12.1-2c1.7,1.8,2.3,4.3,1.7,6.6
			C102.5,527.5,101.9,526.6,101.2,525.9z"/>
		<path d="M83.2,521.9c0.4-0.7,0.7-1.3,0.9-2c0.5,1.3,0.7,2.6,0.8,4c0,0.7,0,1.4-0.1,2C84.4,524.5,83.9,523.1,83.2,521.9z"/>
		<path d="M82.8,509.8c0.4-0.7,0.7-1.3,0.9-2c0.5,1.3,0.7,2.6,0.8,4c0,0.7,0,1.4-0.1,2C84.1,512.3,83.6,511,82.8,509.8z"/>
		<path d="M71.6,566.2c-0.2,0.7-0.4,1.5-0.5,2.2c-0.1-0.7-0.2-1.3-0.2-2c0-0.7,0-1.4,0.1-2.2C71.1,564.9,71.3,565.5,71.6,566.2z"/>
	</g>
	<path class="st2" d="M69.3,457.6c-1.1-1.8-1.7-3.9-1.8-6c-0.2-5.5,3.1-10,7.3-10.1c4.2-0.1,7.7,4.2,7.9,9.7
		c0.1,2.1-0.4,4.2-1.4,6.1c2.2,3.7,2.3,8.3,0.3,12.1c1.1,1.8,1.7,3.9,1.8,6c0,0.7,0,1.3-0.1,2c-0.4-2.3-1.5-4.4-3.2-5.9
		c-2.3,2.5-6.2,2.7-8.7,0.4c0,0-0.1-0.1-0.1-0.1c-1.6,1.7-2.6,3.8-2.9,6.1c-0.1-0.7-0.2-1.3-0.2-2c-0.1-2.1,0.4-4.2,1.4-6.1
		C67.5,466.1,67.3,461.5,69.3,457.6L69.3,457.6z"/>
	<path class="st3" d="M44.4,369.3c-1.1-1.3-2.1-2.6-2.9-4.1l19.8-3.8l-21.5,0.8c-4.4-9-5-19.3-1.5-28.7l29.3,14.2l-27.2-18.8
		c9.5-17.6,31.6-24.2,49.2-14.6c17.6,9.5,24.2,31.6,14.6,49.2c-0.8,1.5-1.7,3-2.8,4.3c1.7,2,3.1,4.2,4.3,6.5l-25.4,14.2l27.3-10
		c4.3,11.5,2.4,24.4-4.9,34.2c12.8,15.4,10.8,38.3-4.6,51.1S59.9,474.3,47,459c-10.7-12.9-11.3-31.4-1.3-44.9
		C35,401.2,34.5,382.7,44.4,369.3L44.4,369.3z"/>
	<path class="st4" d="M109.9,389.8c0.2,8.1-2.3,16.1-7.1,22.7c12.8,15.4,10.8,38.3-4.6,51.1C82.7,476.4,59.8,474.4,47,459
		c-10.7-12.9-11.3-31.4-1.3-44.9C40.7,408.1,109.7,385.8,109.9,389.8z"/>
	<ellipse transform="matrix(0.4256 -0.9049 0.9049 0.4256 -233.5925 272.0676)" class="st3" cx="97.5" cy="320" rx="5.4" ry="5.4"/>
	
		<ellipse transform="matrix(0.4256 -0.9049 0.9049 0.4256 -241.5071 239.0813)" class="st3" cx="67.6" cy="309.8" rx="5.4" ry="5.4"/>
	<ellipse transform="matrix(0.4256 -0.9049 0.9049 0.4256 -294.593 232.7086)" class="st3" cx="36" cy="348.4" rx="5.4" ry="5.4"/>
	
		<ellipse transform="matrix(0.4256 -0.9049 0.9049 0.4256 -318.0895 253.3692)" class="st3" cx="40.5" cy="377.2" rx="5.4" ry="5.4"/>
	
		<ellipse transform="matrix(0.4256 -0.9049 0.9049 0.4256 -368.4473 283.9022)" class="st3" cx="39.4" cy="432.2" rx="5.4" ry="5.4"/>
	
		<ellipse transform="matrix(0.4256 -0.9049 0.9049 0.4256 -368.4473 283.9022)" class="st4" cx="39.4" cy="432.2" rx="5.4" ry="5.4"/>
	
		<ellipse transform="matrix(0.4256 -0.9049 0.9049 0.4256 -301.3023 329.1274)" class="st3" cx="108.6" cy="401.9" rx="5.4" ry="5.4"/>
	
		<ellipse transform="matrix(0.4256 -0.9049 0.9049 0.4256 -301.3023 329.1274)" class="st4" cx="108.6" cy="401.9" rx="5.4" ry="5.4"/>
	<path class="st4" d="M76.1,484.5c4-0.1,7.2-4.3,7.3-9.5c0,0.2,0,0.4,0,0.7c0.2,5.5-3.1,10-7.3,10.1c-4.2,0.1-7.7-4.2-7.9-9.7
		c0-0.2,0-0.4,0-0.7C68.7,480.6,72.1,484.6,76.1,484.5z"/>
	<path class="st4" d="M76.4,496.3c4-0.1,7.2-4.3,7.3-9.5c0,0.2,0,0.4,0,0.7c0.2,5.5-3.1,10-7.3,10.1c-4.2,0.1-7.7-4.2-7.9-9.7
		c0-0.2,0-0.5,0-0.7C69,492.4,72.4,496.4,76.4,496.3z"/>
	<path class="st4" d="M76.8,508.1c4-0.1,7.2-4.3,7.3-9.5c0,0.2,0,0.4,0,0.7c0.2,5.5-3.1,10-7.3,10.1c-4.2,0.1-7.7-4.2-7.9-9.7
		c0-0.2,0-0.4,0-0.7C69.4,504.2,72.8,508.2,76.8,508.1z"/>
	<path class="st4" d="M77.1,519.8c4-0.1,7.2-4.3,7.3-9.5c0,0.2,0,0.4,0,0.7c0.2,5.5-3.1,10-7.3,10.1c-4.2,0.1-7.7-4.2-7.9-9.7
		c0-0.2,0-0.5,0-0.7C69.7,516,73.1,520,77.1,519.8z"/>
	<path class="st4" d="M77.5,531.6c4-0.1,7.2-4.3,7.3-9.4c0,0.2,0,0.4,0,0.7c0.2,5.5-3.1,10-7.3,10.1c-4.2,0.1-7.7-4.2-7.9-9.7
		c0-0.2,0-0.5,0-0.7C70,527.7,73.4,531.7,77.5,531.6z"/>
	<path class="st4" d="M77.8,543.4c4-0.1,7.2-4.3,7.3-9.5c0,0.2,0,0.4,0,0.7c0.2,5.5-3.1,10-7.3,10.1c-4.2,0.1-7.7-4.2-7.9-9.7
		c0-0.2,0-0.4,0-0.7C70.4,539.5,73.8,543.5,77.8,543.4z"/>
	<path class="st4" d="M78.1,555.2c4-0.1,7.2-4.3,7.3-9.5c0,0.2,0,0.4,0,0.7c0.2,5.5-3.1,10-7.3,10.1c-4.2,0.1-7.7-4.2-7.9-9.7
		c0-0.2,0-0.5,0-0.7C70.7,551.3,74.1,555.3,78.1,555.2z"/>
	<path class="st4" d="M78.5,567c4-0.1,7.2-4.3,7.3-9.5c0,0.2,0,0.4,0,0.7c0.2,5.5-3.1,10-7.3,10.1s-7.7-4.2-7.9-9.7
		c0-0.2,0-0.4,0-0.7C71.1,563.1,74.5,567.1,78.5,567z"/>
	<path class="st4" d="M78.7,574.7c4-0.1,7.2-4.3,7.3-9.5c0,0.2,0,0.4,0,0.7c0.2,5.5-3.1,10-7.3,10.1s-7.7-4.2-7.9-9.7
		c0-0.2,0-0.4,0-0.7C71.3,570.8,74.7,574.8,78.7,574.7z"/>
	<path class="st3" d="M11.6,491.4c0.2-1.7,0.6-3.3,1.2-4.9c-1.3-0.6-1.9-2.2-1.3-3.6c0.6-1.3,2.2-1.9,3.6-1.3
		c0.1,0.1,0.2,0.1,0.3,0.2c3.4-4.5,8.7-7.2,14.4-7.3c0-1.5,1.1-2.7,2.6-2.8s2.7,1.1,2.8,2.6l0,0c0,0.3,0,0.5-0.1,0.8
		c5.9,1.6,10.7,5.9,12.9,11.6c1.6,0.5,3.2,1.1,4.6,2l-2.2,9.9l4.1-8.6c8.2,6.4,9.6,18.3,3.2,26.5c-6.4,8.2-18.3,9.6-26.5,3.2
		c-0.4-0.3-0.8-0.7-1.3-1.1c-0.4,0.3-1,0.5-1.5,0.5c-1.5,0-2.7-1.1-2.8-2.6c0-0.8,0.3-1.6,0.9-2.1c-0.5-0.9-1-1.9-1.3-2.8
		c-7.9-2.3-13.4-9.3-13.7-17.5l9.9,2.8L11.6,491.4z"/>
	<g class="st1">
		<path d="M23.8,502.5c5.5-2.9,10.1-7.2,14.9-11.2c1.9-1.6,4-3.2,6.1-4.6l2.8-1.2c0.2,0.4,0.4,0.8,0.5,1.2c1.6,0.5,3.2,1.1,4.6,2
			l-2.2,9.9l4.1-8.6c8.2,6.4,9.6,18.3,3.2,26.5c-6.4,8.2-18.3,9.6-26.5,3.2c-0.4-0.3-0.8-0.7-1.3-1.1c-0.4,0.3-1,0.5-1.5,0.5
			c-1.5,0-2.7-1.1-2.8-2.6c0-0.8,0.3-1.6,0.9-2.1c-0.5-0.9-1-1.9-1.3-2.8c-3.7-1.1-7.1-3.3-9.5-6.3
			C18.5,504.7,21.2,503.8,23.8,502.5z"/>
	</g>
	<path class="st3" d="M92.9,511.5c0-1.5,1.1-2.7,2.6-2.8c0,0,0,0,0,0c0.4,0,0.8,0.1,1.2,0.3c2.4-3.3,5.9-5.8,9.8-7
		c0.4-1.9,1-3.8,2-5.6l9.7,2.7l-8.4-4.6c0.5-0.7,1.1-1.4,1.8-2.1c-0.2-0.4-0.4-0.8-0.4-1.3c0-1.5,1.1-2.7,2.6-2.8
		c0.7,0,1.4,0.3,2,0.8c2.7-1.5,5.7-2.4,8.7-2.4c10.4-0.3,19.1,7.9,19.4,18.3c0.1,4.6-1.4,9.1-4.3,12.6c1,1.1,0.9,2.8-0.2,3.8
		c-0.5,0.4-1.1,0.7-1.7,0.7c-0.8,0-1.5-0.3-2.1-0.9c-1.6,1.1-3.3,1.9-5.1,2.4c-0.8,4-2.8,7.7-5.9,10.5l-10.5-8.8l8.1,10.7
		c-8.8,5.6-20.4,3.1-26.1-5.7c-1.9-2.9-2.9-6.3-3-9.7c-0.1-2.3,0.3-4.6,1.1-6.8C93.4,513.3,92.9,512.4,92.9,511.5z"/>
	<path class="st4" d="M92.9,511.5c0-1.5,1.1-2.7,2.6-2.8c0,0,0,0,0,0c0.4,0,0.8,0.1,1.2,0.3c2.4-3.3,5.9-5.8,9.8-7
		c0.1-0.3,0.1-0.6,0.2-0.9c0.2,0.4,0.4,0.8,0.5,1.2c0.8,2.6,0.5,5.3,1.2,7.8c1,3,3.1,5.5,5.9,7.1c2.7,1.5,5.7,2.6,8.8,3.3
		c2.6,0.5,5,1.3,7.3,2.5l0.6,0.4l-0.6,0.2c-0.8,4-2.8,7.7-5.9,10.5l-10.5-8.8l8.1,10.7c-8.8,5.6-20.4,3.1-26.1-5.7
		c-1.9-2.9-2.9-6.3-3-9.7c-0.1-2.3,0.3-4.6,1.1-6.8C93.4,513.3,92.9,512.4,92.9,511.5z"/>
</g>
<ellipse class="st0" cx="615.6" cy="756.9" rx="115" ry="20"/>
<polygon class="st5" points="555.4,661.9 377.3,659.6 377.8,655 386.4,579.6 542.9,579.6 554.4,655 555.3,660.7 "/>
<polygon class="st4" points="555.3,660.7 466.4,660.7 377.3,659.6 377.8,655 554.4,655 "/>
<rect x="347.5" y="656.2" class="st5" width="236.5" height="5.7"/>
<path class="st2" d="M809.6,126.8c0-8.2-6.6-14.9-14.8-14.9H134.5c-8.2,0-14.8,6.7-14.8,14.9c0,0,0,0,0,0v400.2h689.9V126.8z"/>
<path class="st5" d="M119.7,523.1V570c0,8.2,6.6,14.8,14.8,14.8h660.3c8.2,0,14.8-6.6,14.8-14.8v-46.9H119.7z"/>
<rect x="148.2" y="137" class="st6" width="636.2" height="359.8"/>
<path class="st3" d="M468.1,567c4.7,0,9.2-2.2,12.1-5.9l0,0c0.4-0.6,0.8-1.1,1.2-1.8l-8.5-1.4l9.2,0.1c1.8-3.9,1.9-8.3,0.3-12.2
	l-12.3,6.4l11.3-8.3c-4.3-7.4-13.7-9.9-21.1-5.6s-9.9,13.7-5.6,21.1c0.4,0.6,0.8,1.2,1.2,1.8l0,0C458.9,564.8,463.3,567,468.1,567z"
	/>
<polygon class="st4" points="483.5,584.8 554.6,656.2 543.7,584.8 "/>
<rect x="147.7" y="137.1" class="st7" width="636.9" height="21"/>
<path class="st8" d="M369.4,140.7h190.7c0.3,0,0.6,0.3,0.6,0.6v11.6c0,0.3-0.3,0.6-0.6,0.6H369.4c-0.3,0-0.6-0.3-0.6-0.6v-11.6
	C368.9,141,369.1,140.7,369.4,140.7z"/>
<path class="st2" d="M555.1,148.4h-0.5l-0.2-0.1c0.6-0.7,0.9-1.6,0.9-2.5c0-2.1-1.7-3.8-3.8-3.7c-2.1,0-3.8,1.7-3.7,3.8
	c0,2.1,1.7,3.8,3.8,3.7c0.9,0,1.8-0.3,2.5-0.9l0.2,0.1v0.5l2.9,2.9l0.9-0.9L555.1,148.4z M551.6,148.4c-1.5,0-2.6-1.2-2.6-2.6
	c0-1.5,1.2-2.6,2.6-2.6c1.5,0,2.6,1.2,2.7,2.6c0,0,0,0,0,0C554.2,147.2,553,148.4,551.6,148.4C551.6,148.4,551.6,148.4,551.6,148.4
	L551.6,148.4z"/>
<circle class="st9" cx="159.2" cy="147.6" r="3.9"/>
<circle class="st10" cx="169.8" cy="147.6" r="3.9"/>
<circle class="st11" cx="180.4" cy="147.6" r="3.9"/>
<path class="st3" d="M500.1,291.4c-8.7-11.6-21.4-18.9-35.5-18.9s-26.7,7.3-35.5,18.9c1.9,4.7,4.8,9,8.4,12.6
	c15,14.9,39.2,14.9,54.1,0C495.3,300.4,498.1,296.1,500.1,291.4z"/>
<path class="st3" d="M424.5,298.2c-0.6-0.3-1.2-0.6-1.8-1c-0.8-0.7-1.5-1.5-1.9-2.5c1.7-3.6,0.3-7.9-3.3-9.6
	c-3.6-1.7-7.9-0.3-9.6,3.3c-1.3,2.7-0.8,5.9,1.2,8c0.5,0.5,1.1,1,1.7,1.4c0.8,0.5,1.5,1.2,1.9,2c0.8,1.7,1.9,3.1,3.3,4.4
	c1.4,1.2,2.9,2.3,4.5,3.2c-2.2,6.3-3.5,12.9-3.7,19.6c-2.6,0-5.2,0.5-7.6,1.2c-1.3,0.4-2.5,1-3.5,1.8c-0.3,0-0.6-0.1-0.9-0.1
	c-4,0-7.2,3.2-7.2,7.2c0,4,3.2,7.2,7.2,7.2c3,0,5.7-1.9,6.7-4.7c0.6-1.6,2-2.8,3.7-3c0.6-0.1,1.2-0.1,1.9-0.1
	c0.9,9.4,3.8,18.5,8.5,26.7c-4.2,3.3-6.9,6.9-8,10.9c-0.2,0.1-0.4,0.3-0.6,0.4c-0.3,0.2-0.6,0.5-0.8,0.8c-2.7,2.9-2.5,7.5,0.5,10.1
	s7.5,2.5,10.1-0.5c1.8-2,2.4-4.8,1.4-7.3c-0.7-1.8-0.2-3.8,1.2-5.1c0.5-0.5,1-0.9,1.7-1.5c8.1,9.5,17.8,15.5,29.8,16.3V323
	C445.1,322.1,431.2,311.7,424.5,298.2z M524.3,329.9c-0.3,0-0.6,0-0.9,0.1c-1.1-0.8-2.3-1.3-3.5-1.8c-2.5-0.8-5-1.2-7.6-1.2
	c-0.3-6.7-1.5-13.3-3.7-19.5c1.6-0.9,3.1-2,4.5-3.2c1.4-1.3,2.6-2.8,3.4-4.6c0.4-0.7,1-1.4,1.8-1.7l0,0c3.5-1.9,4.7-6.3,2.7-9.8
	c-1.9-3.5-6.3-4.7-9.8-2.7c-3.3,1.9-4.6,5.9-3,9.3c-0.4,1-1.1,1.8-1.9,2.5c-0.6,0.5-1.1,0.9-1.8,1.3c-6.7,13.5-20.6,23.6-36.5,24.5
	v64.3c12-0.7,21.7-6.8,29.8-16.3c0.6,0.5,1.2,1,1.6,1.4c1.4,1.3,1.9,3.4,1.3,5.2c-1.4,3.7,0.5,7.8,4.3,9.2c3.7,1.4,7.8-0.5,9.2-4.3
	c0.9-2.5,0.4-5.3-1.4-7.3c-0.3-0.3-0.5-0.5-0.8-0.8c-0.3-0.3-0.6-0.4-0.6-0.4c-1.1-4-3.7-7.6-8-10.9c4.8-8.2,7.7-17.3,8.5-26.7
	c0.6,0,1.2,0,1.8,0.1c1.7,0.2,3.2,1.4,3.8,3c1.4,3.7,5.6,5.5,9.3,4.1c2.6-1,4.4-3.5,4.5-6.2c0.2-4-2.9-7.4-6.9-7.7
	C524.5,329.9,524.4,329.9,524.3,329.9z"/>
<linearGradient id="SVGID_1_" gradientUnits="userSpaceOnUse" x1="667.967" y1="-30.4217" x2="667.967" y2="297.9402" gradientTransform="matrix(0.9992 -4.030618e-02 -4.030618e-02 -0.9992 -66.8268 762.8974)">
	<stop  offset="0" style="stop-color:#808080;stop-opacity:0.25"/>
	<stop  offset="0.54" style="stop-color:#808080;stop-opacity:0.12"/>
	<stop  offset="1" style="stop-color:#808080;stop-opacity:0.1"/>
</linearGradient>
<path class="st12" d="M681,745.2c-0.6-0.9-1.3-1.7-2.2-2.4c-4.4-4.1-6.4-10.2-7.5-16.1s-1.4-12-3.1-17.8c-0.9-3-2.1-5.9-3.5-8.7
	c-1-2.1-2.3-6.3-4.1-7.8c-0.4-0.3-0.8-0.5-1.3-0.6c-0.9-1.8-2.1-3.5-3.6-4.8c-2.9-2.6-6.3-4.7-8.3-8c-0.5-1.2-1.2-2.3-1.9-3.3
	c-1.3-1.4-3.3-2-4.5-3.5c-1.5-1.9-1.2-4.7-1-7.2s0-5.4-2.1-6.7c-1.3-0.8-2.9-0.7-4.3-1.4c-2-1-2.8-3.5-2.8-5.8s0.7-4.4,0.9-6.7
	c0.6-7.2-4.2-14.3-2.3-21.2c0.7-2.6,2.3-4.9,3.4-7.4c0.4-0.8,0.7-1.7,1-2.5c3.1,1.2,6.4,2,9.7,2.3c-5.5-12.4-4.1-26.7-6.7-40
	l0.3-0.5c2.6-3.4,4.1-7.6,4.2-11.9c0-4.9-2.3-9.6-3.3-14.4c-0.9-4.1-0.8-8.4-2-12.5c-0.8-2.5-1.9-4.9-3.2-7.2
	c-1.2-2.3-2.6-4.6-3.9-6.8c-1.3-4.2-2.6-8.5-3.8-12.7c-1.8-6-3.7-12-7.2-17.1c-1.3-1.9-1.7-5.7-3.6-6.8c-1.6-0.8-3.4-1.1-5.2-0.9
	c-2.8-1.6-5.2-3.8-5.6-6.9c0-0.7,0-1.3,0.2-2h0.3c4.4-0.4,6.6-4.3,8.9-7.7c3.7-5.5,2.3-12.9,0-19.2c-0.6-2-1.6-3.8-3-5.3
	c-3.2-3-8.3-2.3-12.4-3.8c-1.4-0.5-2.7-1.2-4.1-1.5c-2.8-0.6-5.6,0.3-8.2,1.5s-4.9,2.9-7.5,3.9s-5.9,1.8-6.5,4.5
	c-0.2,0.9-0.1,1.9,0.2,2.7c0.6,1.7,1.7,3.3,3.1,4.5c-4.3,8.9-0.6,19.5,8.3,23.8c0.8,0.4,1.7,0.8,2.6,1c0.8,1.2,1.5,2.5,2.1,3.7
	c1.2,2.2,2.1,4.9,1.7,7.3c-0.7,0.8-1.4,1.6-2,2.5c-2.9,4-4.5,8.7-6,13.4c-2,6-3.6,12.1-4.8,18.3c-2.4,5.2-5.4,10.2-7.2,15.6
	c-3.2,0-6.3-0.4-9.4-1.3l-8.4-1.9c-2.9-0.7-6-1.4-8.3-3.3c-1.2-1-2.2-2.3-3.4-3.3s-3.7-2.2-5.1-1.3c-0.2,0.2-0.5,0.3-0.7,0.5
	c-1.2-2.5-2.4-5-3.9-7.4c-2.1-3.4-5.2-6.5-9-7.2c-2.4-0.4-4.8,0.2-6.8,1.6c-2.3,1.6-3.7,5-2,7.3c0.4,0.5,0.9,1,1.4,1.4
	c1.2,1.3,2.2,2.8,3.1,4.3c3.2,4.5,8,7.7,13.5,8.8l-0.3,1c-0.7,2.1-2.2,4.6-1.8,6.8l37.5,12.8c2.4,1,5,1.5,7.6,1.7c1,0,2-0.1,3-0.4
	v1.9v0.1c0.1,13.2-2,26.3-2.4,39.5c-0.1,2.4,0,5,1.5,6.9c1.7,2.1,4.7,2.5,7.3,2c0.6-0.1,1.3-0.2,1.9-0.4c0.9,3.3,1.5,6.7,1.9,10.1
	l2.5,17.9c0.3,1.8,0.4,3.7,0.4,5.5c-0.3,4.2-2.5,7.9-4.1,11.8s-2.5,8.5-0.5,12.1c0.7,1.1,1.6,2.1,2.2,3.2c0.7,1.8,1.1,3.7,1,5.7
	c0.2,5.4,0.3,10.8,0.4,16.2c-0.4-0.1-0.9,0-1.3,0.3c-2.1,1.6-1.8,9.3-2,11.7c-0.2,4,0,8.1-0.2,12.1c-0.3,5.4-1.1,10.8-2.6,16.1
	c-0.4,1.7-1.1,3.3-2.3,4.6c-1.2,1-2.6,1.7-4.1,2.1c-5,1.6-10.2,2.3-15.4,2.1c-2.1-0.1-4.3-0.3-6.3,0.5s-3.5,3-2.8,5
	c0.6,1.7,2.5,2.5,4.1,3.1c3.8,1.3,7.5,3,11,5.1c1.3,0.9,2.8,1.7,4.3,2.4c1.4,0.5,2.9,0.9,4.4,1.1l17.7,3.1c3.6,0.6,8,1,10.3-2
	c1.3-1.6,1.4-3.8,1.4-5.9c-0.1-4-0.9-8.1-0.4-12.1c0.4-2.4,1-4.7,1.9-6.9c1.8-5.2,3.5-10.5,5.3-15.7c1.8-5.3,3.6-10.6,4.3-16.1
	c0.3-2,0.2-4.3-1.3-5.5c-0.4-0.3-0.8-0.5-1.3-0.7c-0.1-4.8-0.7-9.7-0.4-14.5c0.1-1.2,0.2-2.4,0.3-3.6c0.9,0.9,1.8,1.9,2.5,2.9
	c1.7,2.7,2.3,6.2,5,8c2.2,1.5,5.5,1.4,7.1,3.6c0.5,0.8,0.9,1.8,1.1,2.7c0.9,2.4,2.3,4.5,4,6.3c0.6,2.2,1.4,4.3,2.5,6.3
	c1.5,3.1,2.9,6.2,4.4,9.3c1.5,3.3,3.2,6.6,5,9.8c1.4,2,2.5,4.2,3.3,6.5c1.4,4.9-0.9,10.4-4.5,14s-8.4,5.7-13.2,7.7
	c-0.5,0.2-1,0.4-1.3,0.8c-0.4,0.5-0.6,1.1-0.6,1.7c0,2.3,1.9,4.3,4.1,5c2.2,0.6,4.6,0.7,6.8,0.3c12.8-1.5,25.5-4.7,36.8-10.9
	c1.7-0.8,3.2-2,4.4-3.4C681.5,749,681.7,747,681,745.2z"/>
<path class="st13" d="M627,521c2.1,3.3,4.1,6.6,6,10.1c1.3,2.3,2.4,4.7,3.2,7.2c1.2,4,1.1,8.3,2,12.3c1,4.8,3.3,9.4,3.3,14.3
	c-0.2,4.3-1.6,8.4-4.2,11.8c-2.6,3.4-5.5,6.4-8.8,9.1c-7.6-19.6-11.8-40.3-12.5-61.2c-0.1-2.9-0.1-5.9,0.9-8.6
	c0.7-1.7,3.8-6.4,5.8-4.5c0.7,0.7,0.9,3.7,1.4,4.7C624.9,517.8,625.9,519.4,627,521z"/>
<path class="st4" d="M627,521c2.1,3.3,4.1,6.6,6,10.1c1.3,2.3,2.4,4.7,3.2,7.2c1.2,4,1.1,8.3,2,12.3c1,4.8,3.3,9.4,3.3,14.3
	c-0.2,4.3-1.6,8.4-4.2,11.8c-2.6,3.4-5.5,6.4-8.8,9.1c-7.6-19.6-11.8-40.3-12.5-61.2c-0.1-2.9-0.1-5.9,0.9-8.6
	c0.7-1.7,3.8-6.4,5.8-4.5c0.7,0.7,0.9,3.7,1.4,4.7C624.9,517.8,625.9,519.4,627,521z"/>
<path class="st5" d="M363.4,384.5c-7.9,7.9-8.9,11.4-13.6,13s-21.8,10.4-16.5,20.2l14.4,9.5l0.4,0.3l2.2,6.6l-21.8,38.9
	c0,0-36-16.5-39.5,7.9s-1.3,31-2.2,44c-0.9,13,0.3,16.8-2.9,16.8s-4.4-8.5-4.4-8.5s-0.2-0.4-0.5-1.1c-4.7-9.8-36.7-81.7,14.5-131.1
	c0,0,23.7-1.6,29.4-28.8c3.9-18.8,17.7-17.2,26.9-13.4c3,1.2,5.8,2.8,8.2,4.8c2.2,2.1,4.2,4.5,5.9,7
	C366.5,374.8,367.9,380,363.4,384.5z"/>
<path class="st4" d="M348.1,427.5l2.2,6.6l-21.8,38.9c0,0-36-16.5-39.5,7.9s-1.3,31-2.2,44c-0.9,13,0.3,16.8-2.9,16.8
	s-4.4-8.5-4.4-8.5s-0.2-0.4-0.5-1.1c-1.6-12.2-9.6-83.3,19.6-79.5c0,0,23.7,11.1,27.5,6.7c3-3.5,16.3-23.6,21.7-31.9L348.1,427.5z"
	/>
<path class="st4" d="M363.9,370.6l-14.4,16.4c0,0-16.8,22.4-20.3,21.5c-1-0.2-2.1-0.4-3.2-0.4c-3.4-0.3-5.9-3.2-5.7-6.6
	c0.1-1.4,0.7-2.7,1.7-3.8c5.7-6,16.3-17.4,17-19.9s7.4-13.6,10.8-19c3,1.2,5.8,2.8,8.2,4.8C360.2,365.8,362.1,368.1,363.9,370.6z"/>
<path class="st14" d="M772.4,606.7c-2.5,4.9-15,23.3-20.5,31.3l-2.6,3.8c0,0-1,6.6-17.4-1.6S330.5,469.5,330.5,469.5l-2.6-7.8
	l19-28.5l422.1,163.1C768.9,596.3,775.6,600.4,772.4,606.7z"/>
<path class="st4" d="M751.9,638l-2.6,3.8c0,0-1,6.6-17.4-1.6S330.5,469.5,330.5,469.5l-2.6-7.8L751.9,638z"/>
<path class="st15" d="M519.6,531.9c-3.9-0.6-8.2-0.3-11.3,2.2c-1.8,1.6-3,3.8-3.2,6.2c-0.3,2.8,1.3,6.1,4.1,6.3c0.7,0,1.3,0,2-0.1
	c1.8,0,3.5,0.1,5.2,0.4c6.9,0.6,13.7-2.1,18.2-7.4c2.4-3-0.8-4.3-3.6-4.9C527.3,533.8,523.5,532.5,519.6,531.9z"/>
<path class="st2" d="M586.5,622.2l2.5,17.6c0.3,1.8,0.4,3.7,0.4,5.5c-0.3,4.2-2.5,7.9-4.1,11.7s-2.6,8.4-0.5,12
	c0.7,1.1,1.6,2.1,2.2,3.2c0.7,1.8,1.1,3.7,1,5.6l0.7,25c7.7,0.5,15.5,0.5,23.2-0.1c0.3,0,0.6-0.1,0.8-0.3c0.2-0.3,0.3-0.6,0.3-0.9
	c0.3-5.8-0.7-11.7-0.3-17.6c0.1-2.1,0.4-4.3,0.5-6.4c0.1-8.7-4.2-17.2-2.9-25.8c0.4-2.2,0.9-4.3,1.6-6.4c4.1-15,3.2-30.8,2.3-46.3
	c0-0.2-0.1-0.5-0.2-0.7c-0.1-0.1-0.3-0.2-0.5-0.3c-8.9-2.7-18.5-0.8-25.8,4.9c-1.1,0.9-3.8,1.7-4.6,2.8c-1,1.5,0.3,2.9,0.9,4.5
	C585.2,614.1,586.1,618.1,586.5,622.2z"/>
<path class="st4" d="M586.5,622.2l2.5,17.6c0.3,1.8,0.4,3.7,0.4,5.5c-0.3,4.2-2.5,7.9-4.1,11.7s-2.6,8.4-0.5,12
	c0.7,1.1,1.6,2.1,2.2,3.2c0.7,1.8,1.1,3.7,1,5.6l0.7,25c7.7,0.5,15.5,0.5,23.2-0.1c0.3,0,0.6-0.1,0.8-0.3c0.2-0.3,0.3-0.6,0.3-0.9
	c0.3-5.8-0.7-11.7-0.3-17.6c0.1-2.1,0.4-4.3,0.5-6.4c0.1-8.7-4.2-17.2-2.9-25.8c0.4-2.2,0.9-4.3,1.6-6.4c4.1-15,3.2-30.8,2.3-46.3
	c0-0.2-0.1-0.5-0.2-0.7c-0.1-0.1-0.3-0.2-0.5-0.3c-8.9-2.7-18.5-0.8-25.8,4.9c-1.1,0.9-3.8,1.7-4.6,2.8c-1,1.5,0.3,2.9,0.9,4.5
	C585.2,614.1,586.1,618.1,586.5,622.2z"/>
<path class="st2" d="M632.9,616.9c-1.2,2.4-2.7,4.7-3.4,7.3c-1.8,6.9,2.9,14,2.3,21.1c-0.2,2.2-0.9,4.4-0.9,6.6s0.8,4.7,2.8,5.7
	c1.3,0.7,3,0.6,4.3,1.4c2.1,1.3,2.3,4.2,2.1,6.7s-0.6,5.2,1,7.1c1.2,1.5,3.2,2.1,4.5,3.5c0.8,1,1.4,2.1,1.9,3.3
	c1.9,3.3,5.4,5.4,8.3,8s5.3,6.5,4,10.1c-0.9,2.7-3.6,4.3-6.1,5.5c-4.6,2.3-9.5,4-14.6,5.2c-0.5,0.2-1.1,0.2-1.7,0.1
	c-0.6-0.2-1.1-0.5-1.5-1c-3-2.9-6-5.9-7.4-9.8c-0.2-0.9-0.6-1.8-1.1-2.7c-1.6-2.2-4.8-2.1-7.1-3.6c-2.6-1.8-3.2-5.3-4.9-7.9
	s-4.2-4.2-6-6.6c-3.1-3.9-3.8-9.1-6-13.5c-0.9-1.9-2.1-3.6-2.9-5.6c-0.7-2.3-1.2-4.8-1.4-7.2c-1.4-11.7-5-23.4-2.7-35
	c0.5-2.5,1.3-5,1.6-7.6c0.5-4.5-0.3-9.2,0.3-13.7c0-1.1,0.6-2.2,1.5-2.9c0.5-0.2,1.1-0.4,1.7-0.3c5.9-0.3,11.9-0.2,17.8,0.4
	c3,0.3,6.4,0.9,8.2,3.3c1.5,2.1,1.5,4.9,1.9,7.5c0.6,3.1,2.2,4.8,3.9,7.3S634.1,614.4,632.9,616.9z"/>
<path class="st13" d="M609.8,698.2c1.6,0,3.3-0.1,4.5,0.9c1.5,1.3,1.5,3.5,1.3,5.5c-0.7,5.5-2.5,10.8-4.3,16l-5.3,15.6
	c-0.8,2.2-1.5,4.5-1.9,6.9c-0.5,4,0.3,8,0.4,12c0,2-0.1,4.2-1.4,5.8c-2.3,2.9-6.7,2.6-10.3,2l-17.7-3c-1.5-0.2-3-0.6-4.4-1.1
	c-1.5-0.7-2.9-1.5-4.3-2.4c-3.5-2-7.2-3.7-11-5c-1.7-0.6-3.5-1.4-4.1-3.1c-0.7-2,0.9-4.2,2.8-5s4.2-0.6,6.3-0.5
	c5.2,0.2,10.4-0.5,15.4-2.1c1.5-0.4,2.9-1.1,4.1-2.1c1.2-1.3,2-3,2.3-4.7c1.5-5.2,2.4-10.6,2.7-16c0.2-4,0.1-8,0.2-12
	c0.1-2.4-0.1-10,2-11.6c1.6-1.2,8.1,2.2,10.3,2.6C601.5,697.8,605.7,698.3,609.8,698.2z"/>
<path class="st13" d="M668.2,709.3c1.7,5.7,2,11.8,3.1,17.7s3.1,11.9,7.5,16c0.9,0.7,1.6,1.5,2.2,2.4c0.8,1.7,0.5,3.8-0.8,5.2
	c-1.2,1.4-2.7,2.6-4.4,3.4c-11.3,6.2-24,9.3-36.8,10.8c-2.3,0.4-4.6,0.3-6.8-0.3c-2.2-0.7-4.1-2.7-4.1-5c0-0.6,0.2-1.2,0.6-1.7
	c0.4-0.4,0.8-0.6,1.3-0.8c4.7-1.9,9.5-4,13.2-7.6s5.9-9,4.5-13.9c-0.8-2.3-2-4.4-3.4-6.4c-1.8-3.1-3.5-6.4-5-9.7l-4.4-9.2
	c-1.3-2.7-2.6-5.5-2.8-8.5c5.5,0.2,11-0.6,16.2-2.6c2.4-1,4.7-2.3,6.7-4c1.7-1.4,3.3-4.1,5.5-2.2c1.8,1.5,3,5.7,4.1,7.8
	C666.1,703.4,667.2,706.3,668.2,709.3z"/>
<path class="st15" d="M603.7,480.1c0.4,3.8,4.2,6.4,7.7,7.9l-22.5,7.2c1.5-2.8,0.3-6.2-1.2-9c-1.2-2.2-2.5-4.4-4-6.4
	c-0.2-0.3-0.5-0.7-0.3-1.1c0.1-0.2,0.4-0.4,0.6-0.5c4.6-2.1,9.4-4.2,14.4-4.9c1.5-0.2,4.2-0.8,5.3,0.7S603.5,478.3,603.7,480.1z"/>
<path class="st4" d="M603.7,480.1c0.4,3.8,4.2,6.4,7.7,7.9l-22.5,7.2c1.5-2.8,0.3-6.2-1.2-9c-1.2-2.2-2.5-4.4-4-6.4
	c-0.2-0.3-0.5-0.7-0.3-1.1c0.1-0.2,0.4-0.4,0.6-0.5c4.6-2.1,9.4-4.2,14.4-4.9c1.5-0.2,4.2-0.8,5.3,0.7S603.5,478.3,603.7,480.1z"/>
<circle class="st15" cx="590.6" cy="465.6" r="17.6"/>
<path class="st13" d="M575.3,610.6c1.7,2,4.7,2.5,7.3,2c6.2-1,11.2-5.5,17.2-7.2c7.4-2,15.2,0.6,22.2,3.7s13.9,7,21.5,7.5
	c-6.9-15.4-3-33.8-9.5-49.3c-1.6-3.8-3.9-7.4-4.2-11.5c-0.5-5.1,2.1-10,2.5-15.1c0.4-4.5-1-9-2.3-13.3c-1.6-5.3-3.2-10.6-4.8-15.8
	c-1.8-5.9-3.7-11.9-7.1-17c-1.3-1.9-1.7-5.7-3.6-6.8c-4.3-2.5-10.8,0.6-15.4,0.8s-8.9,3.5-11.6,7.2c-2.9,3.9-4.5,8.6-6,13.3
	c-2.4,6.9-4.2,14-5.3,21.2c-0.2,1.1-0.3,2.2-0.4,3.3c-1,10.3,0.5,20.6,0.5,30.9v0.1c0.1,13.1-2,26.1-2.4,39.2
	C573.8,606.1,573.9,608.8,575.3,610.6z"/>
<path class="st4" d="M576.3,564.5c3.5-0.9,6.6-3.1,9.3-5.5c2.3-2.1,4.4-4.4,6.1-7c2.2-3.5,4-7.2,5.3-11.1c3.7-10.4,6.1-21.3,7-32.3
	c0.3-3,0.3-6.2-1.5-8.6c-2.1-2.7-5.7-3.5-8.8-2.1c-2.4,1.2-3.9,3.5-5.3,5.7c-2.8,4.4-5.6,8.9-7.5,13.8c-0.8,2.2-1.4,4.4-2.2,6.6
	c-0.8,2.2-1.7,4.3-2.7,6.3c-0.2,1.1-0.3,2.2-0.4,3.3C574.8,543.9,576.2,554.2,576.3,564.5z"/>
<path class="st13" d="M602.4,498.1c1.8,2.4,1.7,5.6,1.5,8.6c-0.9,11-3.3,21.9-7,32.3c-1.3,3.9-3.1,7.7-5.3,11.2
	c-1.8,2.6-3.8,4.9-6.1,7c-3.4,3.1-7.5,5.9-12.2,5.9c-2.6-0.1-5.2-0.7-7.6-1.7l-37.5-12.8c-0.4-2.1,1.1-4.6,1.8-6.7l2-5.9
	c0.6-1.6,1.2-3.4,2.7-4.3s3.8,0.3,5.1,1.3s2.2,2.3,3.4,3.3c2.3,1.9,5.4,2.6,8.3,3.3l8.4,1.9c3.1,0.8,6.2,1.3,9.4,1.3
	c2.3-7.2,6.8-13.5,9.3-20.6c0.8-2.2,1.4-4.4,2.2-6.6c1.8-4.9,4.6-9.4,7.5-13.8c1.4-2.2,2.9-4.5,5.3-5.7
	C596.7,494.5,600.4,495.4,602.4,498.1z"/>
<path class="st13" d="M596.2,469.6c-0.1-1.2-0.5-2.3-1.1-3.3c-0.6-1-1.8-1.6-3-1.3c-1.8,0.5-2.3,3.3-4.2,3.4
	c-1.2,0.1-2.1-1.2-2.5-2.4s-0.6-2.5-1.5-3.4c-0.6-0.5-1.4-0.8-2.2-1c-4.3-1.3-8.7-3.8-10.1-8.1c-0.3-0.9-0.4-1.8-0.2-2.7
	c0.7-2.7,4-3.5,6.5-4.5s5-2.6,7.5-3.9s5.4-2.1,8.2-1.5c1.4,0.4,2.8,0.9,4.1,1.5c4.1,1.4,9.2,0.8,12.4,3.8c1.4,1.5,2.4,3.3,3,5.2
	c2.2,6.2,3.7,13.6,0,19.1c-2.3,3.4-4.5,7.2-8.9,7.6C599.1,478.6,597,473.9,596.2,469.6z"/>
<g class="st1">
	<path d="M588.4,463.8c-0.4-1.2-0.6-2.5-1.5-3.4c-0.6-0.5-1.4-0.8-2.2-1c-4.3-1.3-8.7-3.8-10.1-8.1c-0.3-0.9-0.4-1.8-0.2-2.7
		c0.1-0.4,0.3-0.8,0.5-1.2c-1.6,0.7-3,1.6-3.5,3.3c-0.2,0.9-0.1,1.8,0.2,2.7c1.4,4.3,5.8,6.7,10.1,8.1c0.8,0.2,1.5,0.5,2.2,1
		c0.9,0.8,1.1,2.2,1.5,3.4s1.3,2.4,2.5,2.4s1.8-1.2,2.6-2.1C589.6,466,588.8,464.9,588.4,463.8z"/>
	<path d="M607.1,476c-5.1,0.5-7.2-4.2-8-8.5c-0.1-1.2-0.4-2.3-1-3.3c-0.6-1-1.8-1.6-3-1.3c-0.9,0.4-1.7,1.1-2.2,2
		c0.9,0.1,1.8,0.6,2.3,1.4c0.6,1,0.9,2.1,1.1,3.3c0.8,4.3,2.8,9,8,8.5c2-0.2,3.9-1.2,5.3-2.7C608.8,475.7,608,475.9,607.1,476z"/>
</g>
<ellipse class="st3" cx="813.1" cy="655.8" rx="32.3" ry="6.2"/>
<ellipse class="st2" cx="812.6" cy="653.1" rx="3.8" ry="4.9"/>
<ellipse class="st2" cx="812.6" cy="647.1" rx="3.8" ry="4.9"/>
<ellipse class="st2" cx="812.6" cy="641.1" rx="3.8" ry="4.9"/>
<ellipse class="st2" cx="812.6" cy="635.1" rx="3.8" ry="4.9"/>
<ellipse class="st2" cx="812.6" cy="629.1" rx="3.8" ry="4.9"/>
<ellipse class="st2" cx="812.6" cy="623.1" rx="3.8" ry="4.9"/>
<ellipse class="st2" cx="812.6" cy="617" rx="3.8" ry="4.9"/>
<path class="st3" d="M826.6,575.9c0.5-0.7,1-1.3,1.4-2.1l-9.9-1.6l10.7,0.1c2.1-4.5,2.2-9.7,0.3-14.3l-14.3,7.4l13.2-9.7
	c-5-8.6-16-11.5-24.6-6.5c-8.6,5-11.5,16-6.5,24.6c0.4,0.7,0.9,1.4,1.4,2.1c-0.8,1-1.5,2.1-2.1,3.3l12.8,6.7l-13.7-4.6
	c-1.9,5.8-0.8,12.1,2.9,16.9c-6.1,7.8-4.8,19.1,3,25.3s19.1,4.8,25.3-3c5.1-6.5,5.1-15.7,0-22.2
	C831.8,591.6,831.8,582.4,826.6,575.9L826.6,575.9z"/>
<path class="st4" d="M794.5,587c0,4,1.4,8,3.9,11.1c-6.1,7.8-4.8,19.1,3,25.3s19.1,4.8,25.3-3c5.1-6.5,5.1-15.7,0-22.2
	C829,595.1,794.5,585,794.5,587z"/>
<ellipse class="st3" cx="148.4" cy="776.9" rx="46.5" ry="8.9"/>
<ellipse class="st2" cx="147.6" cy="773.1" rx="5.4" ry="7.1"/>
<ellipse class="st2" cx="147.6" cy="764.4" rx="5.4" ry="7.1"/>
<ellipse class="st2" cx="147.6" cy="755.8" rx="5.4" ry="7.1"/>
<ellipse class="st2" cx="147.6" cy="747.1" rx="5.4" ry="7.1"/>
<ellipse class="st2" cx="147.6" cy="738.4" rx="5.4" ry="7.1"/>
<ellipse class="st2" cx="147.6" cy="729.8" rx="5.4" ry="7.1"/>
<ellipse class="st2" cx="147.6" cy="721.1" rx="5.4" ry="7.1"/>
<path class="st3" d="M167.9,661.8c0.7-1,1.4-2,2-3l-14.2-2.3l15.4,0.1c3-6.5,3.2-13.9,0.5-20.5l-20.6,10.7l19-14
	c-7.2-12.4-23-16.7-35.4-9.5c-12.4,7.2-16.7,23-9.5,35.4c0.6,1.1,1.3,2.1,2.1,3.1c-1.2,1.5-2.2,3-3,4.7l18.5,9.6l-19.7-6.6
	c-2.8,8.3-1.2,17.5,4.3,24.4c-8.9,11.3-6.9,27.6,4.3,36.4c11.3,8.9,27.6,6.9,36.4-4.3c7.4-9.4,7.4-22.7,0-32.1
	C175.3,684.5,175.3,671.3,167.9,661.8L167.9,661.8z"/>
<path class="st4" d="M121.6,677.9c0,5.8,2,11.4,5.6,16c-8.9,11.3-6.9,27.6,4.3,36.4s27.6,6.9,36.4-4.3c7.4-9.4,7.4-22.7,0-32.1
	C171.4,689.5,121.6,675,121.6,677.9z"/>
</svg>
